<svg width="314" height="45" viewBox="0 0 314 45" fill="none" xmlns="http://www.w3.org/2000/svg">
<path d="M94.8765 16.5674C94.8765 10.7001 99.6329 5.94373 105.5 5.94373V5.94373V32.738C105.5 36.3236 102.593 39.2303 99.0079 39.2303V39.2303C96.7262 39.2303 94.8765 37.3806 94.8765 35.0988V16.5674Z" fill="#004030"/>
<path d="M139.825 5.94373V5.94373C145.692 5.94373 150.448 10.7001 150.448 16.5674V32.738C150.448 36.3236 147.542 39.2303 143.956 39.2303V39.2303C141.674 39.2303 139.825 37.3806 139.825 35.0988V5.94373Z" fill="#004030"/>
<path d="M113.576 5.94373C116.339 5.94373 118.579 8.18353 118.579 10.9465V10.9465C118.579 14.4865 115.709 17.3562 112.169 17.3562H105.503V5.94373H113.576Z" fill="#004030"/>
<path d="M106.808 22.1117C109.697 22.1117 112.039 24.4536 112.039 27.3424V27.3424C112.039 30.2313 109.697 32.5732 106.808 32.5732H105.501V22.1117H106.808Z" fill="#004030"/>
<path d="M129.202 5.94373H134.513H139.825L135.528 21.4029C135.411 21.8217 135.03 22.1115 134.595 22.1115V22.1115V22.1115C134.112 22.1115 133.687 21.7904 133.555 21.3252L129.202 5.94373Z" fill="#004030"/>
<path d="M118.579 16.5674C118.579 10.7001 123.335 5.94373 129.202 5.94373V5.94373V32.738C129.202 36.3236 126.296 39.2303 122.71 39.2303V39.2303C120.428 39.2303 118.579 37.3806 118.579 35.0988V16.5674Z" fill="#004030"/>
<path d="M94.8765 16.5674C94.8765 10.7001 99.6329 5.94373 105.5 5.94373V5.94373V32.738C105.5 36.3236 102.593 39.2303 99.0079 39.2303V39.2303C96.7262 39.2303 94.8765 37.3806 94.8765 35.0988V16.5674Z" fill="#004030"/>
<path d="M139.825 5.94373V5.94373C145.692 5.94373 150.448 10.7001 150.448 16.5674V32.738C150.448 36.3236 147.542 39.2303 143.956 39.2303V39.2303C141.674 39.2303 139.825 37.3806 139.825 35.0988V5.94373Z" fill="#004030"/>
<path d="M113.576 5.94373C116.339 5.94373 118.579 8.18353 118.579 10.9465V10.9465C118.579 14.4865 115.709 17.3562 112.169 17.3562H105.503V5.94373H113.576Z" fill="#004030"/>
<path d="M106.808 22.1117C109.697 22.1117 112.039 24.4536 112.039 27.3424V27.3424C112.039 30.2313 109.697 32.5732 106.808 32.5732H105.501V22.1117H106.808Z" fill="#004030"/>
<path d="M129.202 5.94373H134.513H139.825L135.528 21.4029C135.411 21.8217 135.03 22.1115 134.595 22.1115V22.1115V22.1115C134.112 22.1115 133.687 21.7904 133.555 21.3252L129.202 5.94373Z" fill="#004030"/>
<path d="M118.579 16.5674C118.579 10.7001 123.335 5.94373 129.202 5.94373V5.94373V32.738C129.202 36.3236 126.296 39.2303 122.71 39.2303V39.2303C120.428 39.2303 118.579 37.3806 118.579 35.0988V16.5674Z" fill="#004030"/>
<path d="M170.241 19H168.139V8.49707H175.492V10.5991H170.241V12.7012H173.39V14.8032H170.241V19ZM178.561 17.0811C178.639 17.1055 178.717 17.1226 178.795 17.1323C178.874 17.1372 178.952 17.1396 179.03 17.1396C179.225 17.1396 179.413 17.1128 179.594 17.0591C179.774 17.0054 179.943 16.9297 180.099 16.832C180.26 16.7295 180.402 16.6074 180.524 16.4658C180.651 16.3193 180.753 16.1582 180.832 15.9824L182.296 17.4546C182.111 17.7183 181.896 17.9551 181.652 18.165C181.413 18.375 181.151 18.5532 180.868 18.6997C180.59 18.8462 180.294 18.9561 179.982 19.0293C179.674 19.1074 179.357 19.1465 179.03 19.1465C178.478 19.1465 177.958 19.0439 177.47 18.8389C176.986 18.6338 176.562 18.3481 176.195 17.9819C175.834 17.6157 175.548 17.1812 175.338 16.6782C175.128 16.1704 175.023 15.6138 175.023 15.0083C175.023 14.3882 175.128 13.8218 175.338 13.3091C175.548 12.7964 175.834 12.3594 176.195 11.998C176.562 11.6367 176.986 11.356 177.47 11.1558C177.958 10.9556 178.478 10.8555 179.03 10.8555C179.357 10.8555 179.677 10.8945 179.989 10.9727C180.302 11.0508 180.597 11.1631 180.875 11.3096C181.159 11.4561 181.422 11.6367 181.667 11.8516C181.911 12.0615 182.125 12.2983 182.311 12.562L178.561 17.0811ZM179.586 12.9575C179.494 12.9233 179.401 12.9014 179.308 12.8916C179.22 12.8818 179.127 12.877 179.03 12.877C178.756 12.877 178.498 12.9282 178.253 13.0308C178.014 13.1284 177.804 13.27 177.624 13.4556C177.448 13.6411 177.309 13.8657 177.206 14.1294C177.104 14.3882 177.052 14.6812 177.052 15.0083C177.052 15.0815 177.055 15.1646 177.06 15.2573C177.069 15.3501 177.082 15.4453 177.096 15.543C177.116 15.6357 177.138 15.7261 177.162 15.814C177.187 15.9019 177.218 15.98 177.257 16.0483L179.586 12.9575ZM185.321 19H183.322V11.1558H183.805L184.464 12.0859C184.787 11.793 185.153 11.5684 185.563 11.4121C185.973 11.251 186.398 11.1704 186.837 11.1704H188.603V13.1626H186.837C186.627 13.1626 186.43 13.2017 186.244 13.2798C186.059 13.3579 185.897 13.4653 185.761 13.6021C185.624 13.7388 185.517 13.8999 185.438 14.0854C185.36 14.271 185.321 14.4688 185.321 14.6787V19ZM191.532 19H189.533V11.1558H190.016L190.675 11.9175C190.998 11.6245 191.361 11.3999 191.767 11.2437C192.177 11.0825 192.604 11.002 193.048 11.002C193.527 11.002 193.979 11.0947 194.403 11.2803C194.828 11.4609 195.199 11.7124 195.517 12.0347C195.834 12.3521 196.083 12.7256 196.264 13.1553C196.449 13.5801 196.542 14.0342 196.542 14.5176V19H194.542V14.5176C194.542 14.3125 194.503 14.1196 194.425 13.939C194.347 13.7534 194.24 13.5923 194.103 13.4556C193.966 13.3188 193.808 13.2114 193.627 13.1333C193.446 13.0552 193.253 13.0161 193.048 13.0161C192.838 13.0161 192.641 13.0552 192.455 13.1333C192.27 13.2114 192.108 13.3188 191.972 13.4556C191.835 13.5923 191.728 13.7534 191.649 13.939C191.571 14.1196 191.532 14.3125 191.532 14.5176V19ZM205.565 19H205.082L204.306 17.9233C204.115 18.0942 203.913 18.2554 203.698 18.4067C203.488 18.5532 203.266 18.6826 203.031 18.7949C202.797 18.9023 202.555 18.9878 202.306 19.0513C202.062 19.1147 201.813 19.1465 201.559 19.1465C201.007 19.1465 200.487 19.0537 199.999 18.8682C199.516 18.6826 199.091 18.4141 198.725 18.0625C198.363 17.7061 198.078 17.2715 197.868 16.7588C197.658 16.2461 197.553 15.6626 197.553 15.0083C197.553 14.3979 197.658 13.8389 197.868 13.3311C198.078 12.8184 198.363 12.3789 198.725 12.0127C199.091 11.6465 199.516 11.3633 199.999 11.1631C200.487 10.958 201.007 10.8555 201.559 10.8555C201.813 10.8555 202.064 10.8872 202.313 10.9507C202.562 11.0142 202.804 11.1021 203.039 11.2144C203.273 11.3267 203.495 11.4585 203.705 11.6099C203.92 11.7612 204.12 11.9248 204.306 12.1006L205.082 11.1704H205.565V19ZM203.551 15.0083C203.551 14.7349 203.498 14.4712 203.39 14.2173C203.288 13.9585 203.146 13.7314 202.965 13.5361C202.785 13.3359 202.572 13.1772 202.328 13.0601C202.089 12.938 201.833 12.877 201.559 12.877C201.286 12.877 201.027 12.9233 200.783 13.0161C200.543 13.1089 200.333 13.2456 200.153 13.4263C199.977 13.6069 199.838 13.8315 199.735 14.1001C199.633 14.3638 199.582 14.6665 199.582 15.0083C199.582 15.3501 199.633 15.6553 199.735 15.9238C199.838 16.1875 199.977 16.4097 200.153 16.5903C200.333 16.771 200.543 16.9077 200.783 17.0005C201.027 17.0933 201.286 17.1396 201.559 17.1396C201.833 17.1396 202.089 17.0811 202.328 16.9639C202.572 16.8418 202.785 16.6831 202.965 16.4878C203.146 16.2876 203.288 16.0605 203.39 15.8066C203.498 15.5479 203.551 15.2817 203.551 15.0083ZM209.096 19H207.096V11.1558H207.58L208.239 11.9175C208.561 11.6245 208.925 11.3999 209.33 11.2437C209.74 11.0825 210.167 11.002 210.612 11.002C211.09 11.002 211.542 11.0947 211.967 11.2803C212.392 11.4609 212.763 11.7124 213.08 12.0347C213.397 12.3521 213.646 12.7256 213.827 13.1553C214.013 13.5801 214.105 14.0342 214.105 14.5176V19H212.106V14.5176C212.106 14.3125 212.067 14.1196 211.989 13.939C211.911 13.7534 211.803 13.5923 211.667 13.4556C211.53 13.3188 211.371 13.2114 211.19 13.1333C211.01 13.0552 210.817 13.0161 210.612 13.0161C210.402 13.0161 210.204 13.0552 210.019 13.1333C209.833 13.2114 209.672 13.3188 209.535 13.4556C209.398 13.5923 209.291 13.7534 209.213 13.939C209.135 14.1196 209.096 14.3125 209.096 14.5176V19ZM223.114 19H222.631L221.854 17.9233C221.664 18.0942 221.461 18.2554 221.247 18.4067C221.037 18.5532 220.814 18.6826 220.58 18.7949C220.346 18.9023 220.104 18.9878 219.855 19.0513C219.611 19.1147 219.362 19.1465 219.108 19.1465C218.556 19.1465 218.036 19.0439 217.548 18.8389C217.064 18.6289 216.64 18.3408 216.273 17.9746C215.912 17.6035 215.626 17.1665 215.417 16.6636C215.207 16.1558 215.102 15.604 215.102 15.0083C215.102 14.4175 215.207 13.8682 215.417 13.3604C215.626 12.8525 215.912 12.4131 216.273 12.042C216.64 11.6709 217.064 11.3804 217.548 11.1704C218.036 10.9604 218.556 10.8555 219.108 10.8555C219.284 10.8555 219.464 10.8701 219.65 10.8994C219.84 10.9287 220.023 10.9775 220.199 11.0459C220.38 11.1094 220.548 11.1948 220.705 11.3022C220.861 11.4097 220.993 11.5415 221.1 11.6978V8.03564H223.114V19ZM221.1 15.0083C221.1 14.7349 221.046 14.4712 220.939 14.2173C220.836 13.9585 220.695 13.7314 220.514 13.5361C220.333 13.3359 220.121 13.1772 219.877 13.0601C219.638 12.938 219.381 12.877 219.108 12.877C218.834 12.877 218.576 12.9258 218.332 13.0234C218.092 13.1211 217.882 13.2627 217.702 13.4482C217.526 13.6289 217.387 13.8511 217.284 14.1147C217.182 14.3784 217.13 14.6763 217.13 15.0083C217.13 15.2964 217.182 15.5698 217.284 15.8286C217.387 16.0874 217.526 16.3145 217.702 16.5098C217.882 16.7051 218.092 16.8589 218.332 16.9712C218.576 17.0835 218.834 17.1396 219.108 17.1396C219.381 17.1396 219.638 17.0811 219.877 16.9639C220.121 16.8418 220.333 16.6831 220.514 16.4878C220.695 16.2876 220.836 16.0605 220.939 15.8066C221.046 15.5479 221.1 15.2817 221.1 15.0083ZM232.226 15.0083C232.226 15.5942 232.121 16.1411 231.911 16.6489C231.701 17.1519 231.415 17.5889 231.054 17.96C230.692 18.3262 230.268 18.6167 229.779 18.8315C229.296 19.0415 228.776 19.1465 228.219 19.1465C227.667 19.1465 227.147 19.0415 226.659 18.8315C226.176 18.6167 225.751 18.3262 225.385 17.96C225.023 17.5889 224.738 17.1519 224.528 16.6489C224.318 16.1411 224.213 15.5942 224.213 15.0083C224.213 14.4126 224.318 13.8608 224.528 13.353C224.738 12.8452 225.023 12.4082 225.385 12.042C225.751 11.6709 226.176 11.3804 226.659 11.1704C227.147 10.9604 227.667 10.8555 228.219 10.8555C228.776 10.8555 229.296 10.9556 229.779 11.1558C230.268 11.3511 230.692 11.6318 231.054 11.998C231.415 12.3594 231.701 12.7964 231.911 13.3091C232.121 13.8169 232.226 14.3833 232.226 15.0083ZM230.211 15.0083C230.211 14.686 230.158 14.3955 230.05 14.1367C229.948 13.873 229.806 13.6484 229.625 13.4629C229.445 13.2725 229.232 13.1284 228.988 13.0308C228.749 12.9282 228.493 12.877 228.219 12.877C227.946 12.877 227.687 12.9282 227.443 13.0308C227.204 13.1284 226.994 13.2725 226.813 13.4629C226.637 13.6484 226.498 13.873 226.396 14.1367C226.293 14.3955 226.242 14.686 226.242 15.0083C226.242 15.311 226.293 15.5918 226.396 15.8506C226.498 16.1094 226.637 16.334 226.813 16.5244C226.994 16.7148 227.204 16.8662 227.443 16.9785C227.687 17.0859 227.946 17.1396 228.219 17.1396C228.493 17.1396 228.749 17.0884 228.988 16.9858C229.232 16.8833 229.445 16.7393 229.625 16.5537C229.806 16.3682 229.948 16.1436 230.05 15.8799C230.158 15.6162 230.211 15.3257 230.211 15.0083ZM178.561 34H176.466V26.5C176.466 26.3535 176.437 26.2168 176.378 26.0898C176.325 25.9629 176.249 25.853 176.151 25.7603C176.059 25.6626 175.949 25.5869 175.822 25.5332C175.695 25.4795 175.558 25.4526 175.412 25.4526C175.265 25.4526 175.128 25.4795 175.001 25.5332C174.875 25.5869 174.762 25.6626 174.665 25.7603C174.572 25.853 174.499 25.9629 174.445 26.0898C174.391 26.2168 174.364 26.3535 174.364 26.5V34H172.262V26.5C172.262 26.3535 172.235 26.2168 172.182 26.0898C172.128 25.9629 172.052 25.853 171.955 25.7603C171.862 25.6626 171.752 25.5869 171.625 25.5332C171.498 25.4795 171.361 25.4526 171.215 25.4526C171.068 25.4526 170.932 25.4795 170.805 25.5332C170.678 25.5869 170.565 25.6626 170.468 25.7603C170.375 25.853 170.302 25.9629 170.248 26.0898C170.194 26.2168 170.167 26.3535 170.167 26.5V34H168.065V26.5C168.065 26.0654 168.146 25.6577 168.307 25.2769C168.473 24.8911 168.698 24.5566 168.981 24.2734C169.269 23.9854 169.604 23.7607 169.984 23.5996C170.37 23.4336 170.78 23.3506 171.215 23.3506C171.605 23.3506 171.981 23.4214 172.343 23.563C172.704 23.6997 173.029 23.8999 173.317 24.1636C173.605 23.8999 173.927 23.6997 174.284 23.563C174.645 23.4214 175.021 23.3506 175.412 23.3506C175.846 23.3506 176.254 23.4336 176.635 23.5996C177.021 23.7607 177.355 23.9854 177.638 24.2734C177.926 24.5566 178.151 24.8911 178.312 25.2769C178.478 25.6577 178.561 26.0654 178.561 26.5V34ZM187.738 34H187.255L186.479 32.9233C186.288 33.0942 186.085 33.2554 185.871 33.4067C185.661 33.5532 185.438 33.6826 185.204 33.7949C184.97 33.9023 184.728 33.9878 184.479 34.0513C184.235 34.1147 183.986 34.1465 183.732 34.1465C183.18 34.1465 182.66 34.0537 182.172 33.8682C181.688 33.6826 181.264 33.4141 180.897 33.0625C180.536 32.7061 180.25 32.2715 180.041 31.7588C179.831 31.2461 179.726 30.6626 179.726 30.0083C179.726 29.3979 179.831 28.8389 180.041 28.3311C180.25 27.8184 180.536 27.3789 180.897 27.0127C181.264 26.6465 181.688 26.3633 182.172 26.1631C182.66 25.958 183.18 25.8555 183.732 25.8555C183.986 25.8555 184.237 25.8872 184.486 25.9507C184.735 26.0142 184.977 26.1021 185.211 26.2144C185.446 26.3267 185.668 26.4585 185.878 26.6099C186.093 26.7612 186.293 26.9248 186.479 27.1006L187.255 26.1704H187.738V34ZM185.724 30.0083C185.724 29.7349 185.67 29.4712 185.563 29.2173C185.46 28.9585 185.319 28.7314 185.138 28.5361C184.958 28.3359 184.745 28.1772 184.501 28.0601C184.262 27.938 184.005 27.877 183.732 27.877C183.458 27.877 183.2 27.9233 182.956 28.0161C182.716 28.1089 182.506 28.2456 182.326 28.4263C182.15 28.6069 182.011 28.8315 181.908 29.1001C181.806 29.3638 181.754 29.6665 181.754 30.0083C181.754 30.3501 181.806 30.6553 181.908 30.9238C182.011 31.1875 182.15 31.4097 182.326 31.5903C182.506 31.771 182.716 31.9077 182.956 32.0005C183.2 32.0933 183.458 32.1396 183.732 32.1396C184.005 32.1396 184.262 32.0811 184.501 31.9639C184.745 31.8418 184.958 31.6831 185.138 31.4878C185.319 31.2876 185.46 31.0605 185.563 30.8066C185.67 30.5479 185.724 30.2817 185.724 30.0083ZM196.125 27.7158L194.66 29.188C194.586 28.9829 194.486 28.7998 194.359 28.6387C194.232 28.4727 194.088 28.3335 193.927 28.2212C193.771 28.1089 193.6 28.0234 193.415 27.9648C193.229 27.9062 193.039 27.877 192.843 27.877C192.57 27.877 192.311 27.9331 192.067 28.0454C191.828 28.1577 191.618 28.3164 191.437 28.5215C191.261 28.7217 191.122 28.9609 191.02 29.2393C190.917 29.5176 190.866 29.8252 190.866 30.1621C190.866 30.4355 190.917 30.6919 191.02 30.9312C191.122 31.1704 191.261 31.3804 191.437 31.561C191.618 31.7417 191.828 31.8833 192.067 31.9858C192.311 32.0884 192.57 32.1396 192.843 32.1396C193.039 32.1396 193.227 32.1128 193.407 32.0591C193.588 32.0054 193.756 31.9297 193.913 31.832C194.074 31.7295 194.215 31.6074 194.337 31.4658C194.464 31.3193 194.567 31.1582 194.645 30.9824L196.11 32.4546C195.924 32.7183 195.709 32.9551 195.465 33.165C195.226 33.375 194.965 33.5532 194.682 33.6997C194.403 33.8462 194.108 33.9561 193.795 34.0293C193.488 34.1074 193.17 34.1465 192.843 34.1465C192.292 34.1465 191.771 34.0439 191.283 33.8389C190.8 33.6289 190.375 33.3433 190.009 32.9819C189.647 32.6206 189.362 32.1982 189.152 31.7148C188.942 31.2314 188.837 30.7139 188.837 30.1621C188.837 29.5615 188.942 29 189.152 28.4775C189.362 27.9551 189.647 27.501 190.009 27.1152C190.375 26.7246 190.8 26.417 191.283 26.1924C191.771 25.9678 192.292 25.8555 192.843 25.8555C193.17 25.8555 193.49 25.897 193.803 25.98C194.12 26.063 194.42 26.1851 194.704 26.3462C194.992 26.5024 195.255 26.6953 195.495 26.9248C195.739 27.1543 195.949 27.418 196.125 27.7158ZM200.109 32.0811C200.187 32.1055 200.265 32.1226 200.343 32.1323C200.421 32.1372 200.5 32.1396 200.578 32.1396C200.773 32.1396 200.961 32.1128 201.142 32.0591C201.322 32.0054 201.491 31.9297 201.647 31.832C201.808 31.7295 201.95 31.6074 202.072 31.4658C202.199 31.3193 202.301 31.1582 202.379 30.9824L203.844 32.4546C203.659 32.7183 203.444 32.9551 203.2 33.165C202.96 33.375 202.699 33.5532 202.416 33.6997C202.138 33.8462 201.842 33.9561 201.53 34.0293C201.222 34.1074 200.905 34.1465 200.578 34.1465C200.026 34.1465 199.506 34.0439 199.018 33.8389C198.534 33.6338 198.109 33.3481 197.743 32.9819C197.382 32.6157 197.096 32.1812 196.886 31.6782C196.676 31.1704 196.571 30.6138 196.571 30.0083C196.571 29.3882 196.676 28.8218 196.886 28.3091C197.096 27.7964 197.382 27.3594 197.743 26.998C198.109 26.6367 198.534 26.356 199.018 26.1558C199.506 25.9556 200.026 25.8555 200.578 25.8555C200.905 25.8555 201.225 25.8945 201.537 25.9727C201.85 26.0508 202.145 26.1631 202.423 26.3096C202.707 26.4561 202.97 26.6367 203.214 26.8516C203.458 27.0615 203.673 27.2983 203.859 27.562L200.109 32.0811ZM201.134 27.9575C201.042 27.9233 200.949 27.9014 200.856 27.8916C200.768 27.8818 200.675 27.877 200.578 27.877C200.304 27.877 200.045 27.9282 199.801 28.0308C199.562 28.1284 199.352 28.27 199.171 28.4556C198.996 28.6411 198.856 28.8657 198.754 29.1294C198.651 29.3882 198.6 29.6812 198.6 30.0083C198.6 30.0815 198.603 30.1646 198.607 30.2573C198.617 30.3501 198.629 30.4453 198.644 30.543C198.664 30.6357 198.686 30.7261 198.71 30.814C198.734 30.9019 198.766 30.98 198.805 31.0483L201.134 27.9575ZM206.869 34H204.87V26.1558H205.353L206.012 26.9175C206.334 26.6245 206.698 26.3999 207.104 26.2437C207.514 26.0825 207.941 26.002 208.385 26.002C208.864 26.002 209.315 26.0947 209.74 26.2803C210.165 26.4609 210.536 26.7124 210.854 27.0347C211.171 27.3521 211.42 27.7256 211.601 28.1553C211.786 28.5801 211.879 29.0342 211.879 29.5176V34H209.879V29.5176C209.879 29.3125 209.84 29.1196 209.762 28.939C209.684 28.7534 209.577 28.5923 209.44 28.4556C209.303 28.3188 209.145 28.2114 208.964 28.1333C208.783 28.0552 208.59 28.0161 208.385 28.0161C208.175 28.0161 207.978 28.0552 207.792 28.1333C207.606 28.2114 207.445 28.3188 207.309 28.4556C207.172 28.5923 207.064 28.7534 206.986 28.939C206.908 29.1196 206.869 29.3125 206.869 29.5176V34ZM220.902 34H220.419L219.643 32.9233C219.452 33.0942 219.25 33.2554 219.035 33.4067C218.825 33.5532 218.603 33.6826 218.368 33.7949C218.134 33.9023 217.892 33.9878 217.643 34.0513C217.399 34.1147 217.15 34.1465 216.896 34.1465C216.344 34.1465 215.824 34.0537 215.336 33.8682C214.853 33.6826 214.428 33.4141 214.062 33.0625C213.7 32.7061 213.415 32.2715 213.205 31.7588C212.995 31.2461 212.89 30.6626 212.89 30.0083C212.89 29.3979 212.995 28.8389 213.205 28.3311C213.415 27.8184 213.7 27.3789 214.062 27.0127C214.428 26.6465 214.853 26.3633 215.336 26.1631C215.824 25.958 216.344 25.8555 216.896 25.8555C217.15 25.8555 217.401 25.8872 217.65 25.9507C217.899 26.0142 218.141 26.1021 218.375 26.2144C218.61 26.3267 218.832 26.4585 219.042 26.6099C219.257 26.7612 219.457 26.9248 219.643 27.1006L220.419 26.1704H220.902V34ZM218.888 30.0083C218.888 29.7349 218.834 29.4712 218.727 29.2173C218.625 28.9585 218.483 28.7314 218.302 28.5361C218.122 28.3359 217.909 28.1772 217.665 28.0601C217.426 27.938 217.169 27.877 216.896 27.877C216.623 27.877 216.364 27.9233 216.12 28.0161C215.88 28.1089 215.67 28.2456 215.49 28.4263C215.314 28.6069 215.175 28.8315 215.072 29.1001C214.97 29.3638 214.918 29.6665 214.918 30.0083C214.918 30.3501 214.97 30.6553 215.072 30.9238C215.175 31.1875 215.314 31.4097 215.49 31.5903C215.67 31.771 215.88 31.9077 216.12 32.0005C216.364 32.0933 216.623 32.1396 216.896 32.1396C217.169 32.1396 217.426 32.0811 217.665 31.9639C217.909 31.8418 218.122 31.6831 218.302 31.4878C218.483 31.2876 218.625 31.0605 218.727 30.8066C218.834 30.5479 218.888 30.2817 218.888 30.0083Z" fill="#004030"/>
<line x1="159.038" x2="159.038" y2="44.05" stroke="black"/>
<path d="M0 18.0769C0 15.3155 2.23858 13.0769 5 13.0769H44.1291L29.4194 32.0978H0V18.0769Z" fill="#D9D9D9"/>
<path d="M314 25.9088C314 28.6702 311.761 30.9088 309 30.9088H243.971L258.282 11.8879H314V25.9088Z" fill="#D9D9D9"/>
<path d="M52.5875 13.0769H87.4401L72.33 32.0978H37.5905L52.5875 13.0769Z" fill="#D9D9D9"/>
</svg>
