<svg width="95" height="87" viewBox="0 0 95 87" fill="none" xmlns="http://www.w3.org/2000/svg">
<path d="M69.939 9.4584C76.5059 10.5439 55.215 41.5187 51.8957 61.5984C48.5764 81.6781 50.7078 85.088 40.2141 83.3534C-11.2352 76.6705 3.20113 70.8578 12.3898 55.9791C24.0949 17.8297 -23.1829 -5.93531 69.939 9.4584Z" fill="#004030"/>
<circle cx="56" cy="46" r="37.5" fill="#FFFEFE" stroke="#81B7A8" stroke-width="3"/>
<ellipse cx="56.2759" cy="33.0769" rx="15.5172" ry="13.0769" fill="#AAA6A6"/>
<path d="M78 66.7825C78 77.4533 67.9264 64.5095 55.5 64.5095C43.0736 64.5095 33 77.4533 33 66.7825C33 56.1118 43.0736 47.4614 55.5 47.4614C67.9264 47.4614 78 56.1118 78 66.7825Z" fill="#AAA6A6"/>
</svg>
